<svg width="39" height="30" viewBox="0 0 39 30" fill="none" xmlns="http://www.w3.org/2000/svg">
<path d="M16.0784 29.1608L16.5697 29.6521C17.0305 30.113 17.7784 30.113 18.2392 29.6521L37.7957 10.0956C38.2566 9.63476 38.2566 8.88693 37.7957 8.42606L37.6653 8.29563L37.3088 7.93911L31.9305 2.56085C31.4697 2.09998 30.7218 2.09998 30.261 2.56085L29.7697 3.05215H29.774L27.7914 5.03911C27.3305 5.49998 26.5827 5.49998 26.1218 5.03911L23.0436 1.96085L22.5697 1.48693L22.5523 1.46954C22.0914 1.00867 21.3436 1.00867 20.8827 1.46954L18.5523 3.79998C18.0914 4.26085 17.3436 4.26085 16.8827 3.79998L13.9175 0.834759L13.5088 0.426064L13.4262 0.343455C12.9653 -0.117415 12.2175 -0.117415 11.7566 0.343455L0.834881 11.2652L0.343577 11.7565C-0.117293 12.2174 -0.117293 12.9652 0.343577 13.4261L16.0784 29.1608ZM35.1479 10.0956L28.5088 16.7348C28.0479 17.1956 27.3001 17.1956 26.8392 16.7348L23.6305 13.5261C23.1697 13.0652 23.1697 12.3174 23.6305 11.8565L30.2697 5.21737C30.7305 4.7565 31.4784 4.7565 31.9392 5.21737L35.1479 8.42606C35.6088 8.88693 35.6088 9.63476 35.1479 10.0956ZM24.7957 6.36085C25.2566 6.82172 25.2566 7.56954 24.7957 8.03041L21.4653 11.3608H21.461L20.9697 11.8435C20.5088 12.3043 20.5088 13.0521 20.9697 13.513L25.5131 18.0565C25.974 18.5174 25.974 19.2652 25.5131 19.7261L23.374 21.8652C22.9131 22.3261 22.1653 22.3261 21.7044 21.8652L13.2566 13.4174C12.7957 12.9565 12.7957 12.2087 13.2566 11.7478L20.8871 4.11737C21.3479 3.6565 22.0958 3.6565 22.5566 4.11737L24.8001 6.36085H24.7957ZM13.4262 2.99563L15.5523 5.12172C16.0131 5.58258 16.0131 6.33041 15.5523 6.79128L11.0914 11.2521L10.6001 11.7435C10.1392 12.2043 10.1392 12.9522 10.6001 13.413L20.374 23.1869C20.8349 23.6478 20.8349 24.3956 20.374 24.8565L18.2349 26.9956C17.774 27.4565 17.0262 27.4565 16.5653 26.9956L2.99575 13.4261C2.53488 12.9652 2.53488 12.2174 2.99575 11.7565L11.7566 2.99563C12.2175 2.53476 12.9653 2.53476 13.4262 2.99563Z" fill="white"/>
</svg>
