<svg width="221" height="30" viewBox="0 0 221 30" fill="none" xmlns="http://www.w3.org/2000/svg">
<g clip-path="url(#clip0_17_8)">
<path d="M56.8783 25.7957C54.9348 25.7957 53.1826 25.3957 51.6218 24.5957C50.0609 23.7957 48.8218 22.6131 47.9131 21.0522C47 19.4913 46.5479 17.587 46.5479 15.3478C46.5479 13.6652 46.8218 12.1739 47.3739 10.8739C47.9261 9.57394 48.687 8.47829 49.6565 7.58698C50.6261 6.69568 51.7435 6.02611 53.0044 5.57394C54.2652 5.12176 55.6087 4.90002 57.0305 4.90002C58.1305 4.90002 59.1609 5.02611 60.1218 5.27394C61.0826 5.52611 62.0044 5.89133 62.8826 6.36959L63.0044 10.3044H62.1957L60.9348 7.93046C60.7348 7.53046 60.5174 7.16959 60.2913 6.84785C60.0609 6.52611 59.7652 6.29568 59.4044 6.15655C58.9044 5.91742 58.3131 5.79568 57.6305 5.79568C56.4479 5.79568 55.3739 6.09568 54.4 6.69568C53.4305 7.29568 52.6522 8.29133 52.0739 9.68263C51.4913 11.0739 51.2044 12.9696 51.2044 15.3739C51.2044 17.7783 51.4783 19.6479 52.0305 21.0478C52.5826 22.4478 53.3261 23.4435 54.2696 24.0348C55.2087 24.6261 56.2696 24.9218 57.4522 24.9218C57.9913 24.9218 58.4348 24.8826 58.7739 24.8C59.1131 24.7218 59.4522 24.6087 59.7957 24.4696C60.1957 24.3087 60.5044 24.0739 60.7261 23.7652C60.9479 23.4565 61.1348 23.1 61.2957 22.7L62.4348 19.9652H63.2479L63.1261 24.2913C62.2652 24.7739 61.3131 25.1435 60.2739 25.4044C59.2305 25.6652 58.1 25.7957 56.8783 25.7957Z" fill="white"/>
<path d="M64.7174 25.287V24.7174L65.1696 24.5956C65.8304 24.3739 66.1609 23.8739 66.1609 23.0956C66.1609 22.413 66.1652 21.7304 66.1739 21.0391C66.1826 20.3478 66.187 19.6609 66.187 18.9826V7.56956C66.187 7.14782 66.1174 6.83478 65.9783 6.62174C65.8391 6.41304 65.5696 6.25652 65.1696 6.15652L64.7174 6.03478V5.46522L69.9739 4.20435L70.3652 4.47391L70.2435 8.70869V23.0956C70.2652 23.4956 70.3478 23.8217 70.5 24.0696C70.6522 24.3217 70.9174 24.4956 71.2957 24.5956L71.7174 24.7174V25.287H64.7218H64.7174Z" fill="white"/>
<path d="M80.574 10.4174C81.8349 10.4174 82.9175 10.6782 83.8175 11.2C84.7175 11.7217 85.4132 12.4348 85.9045 13.3478C86.3958 14.2608 86.6393 15.3043 86.6393 16.4869C86.6393 16.7478 86.6306 16.9913 86.6088 17.2217C86.5871 17.4521 86.548 17.6695 86.4871 17.8652H77.448C77.4697 19.9261 77.8523 21.4087 78.6045 22.3087C79.3566 23.2087 80.4523 23.6608 81.8914 23.6608C82.8914 23.6608 83.7045 23.4956 84.3219 23.1652C84.9436 22.8347 85.5132 22.3695 86.0349 21.7695L86.5175 22.2217C85.9175 23.3217 85.1001 24.1782 84.0697 24.7913C83.0393 25.4 81.8132 25.7087 80.3914 25.7087C78.9697 25.7087 77.7175 25.4087 76.6393 24.8087C75.5567 24.2087 74.7132 23.3434 74.1001 22.213C73.4871 21.0826 73.1827 19.7261 73.1827 18.1434C73.1827 16.5608 73.5393 15.1087 74.248 13.9695C74.9567 12.8304 75.8784 11.9521 77.0088 11.3434C78.1393 10.7348 79.3262 10.4261 80.5697 10.4261L80.574 10.4174ZM80.4219 11.2913C79.8393 11.2913 79.3349 11.4565 78.9045 11.7869C78.474 12.1174 78.1349 12.7 77.8827 13.5304C77.6306 14.3608 77.4871 15.5261 77.448 17.0304H82.8219C83.0436 15.0087 82.961 13.5478 82.5827 12.6478C82.2001 11.7478 81.4827 11.2956 80.4219 11.2956V11.2913Z" fill="white"/>
<path d="M92.3783 25.7044C91.2392 25.7044 90.2696 25.3783 89.4783 24.7261C88.687 24.074 88.2914 23.1392 88.2914 21.9174C88.2914 20.9566 88.7566 20.0696 89.687 19.2609C90.6175 18.4522 92.0827 17.8566 94.087 17.474C94.4262 17.3957 94.8218 17.3174 95.274 17.2479C95.7262 17.1783 96.1696 17.1044 96.6088 17.0218V14.8913C96.6088 13.5305 96.4392 12.5913 96.1001 12.0696C95.7609 11.5479 95.2175 11.287 94.4783 11.287H94.387C93.9262 11.287 93.5609 11.4305 93.2914 11.7218C93.0218 12.0131 92.8479 12.487 92.7653 13.1479L92.674 13.5392C92.6131 14.3392 92.4044 14.9261 92.0436 15.2957C91.6827 15.6653 91.2305 15.8522 90.6914 15.8522C90.1914 15.8522 89.774 15.6957 89.4436 15.387C89.1131 15.0783 88.9479 14.6696 88.9479 14.1696C88.9479 13.3479 89.2262 12.6566 89.787 12.0957C90.3479 11.5348 91.0914 11.1131 92.0262 10.8348C92.9566 10.5566 93.9653 10.4131 95.0436 10.4131C96.8262 10.4131 98.187 10.8435 99.1262 11.7044C100.065 12.5653 100.539 13.9653 100.539 15.9087V22.6044C100.539 23.4653 100.948 23.8957 101.77 23.8957H102.461L102.761 24.2261C102.4 24.687 102 25.0435 101.561 25.2913C101.122 25.5435 100.517 25.6653 99.7609 25.6653C98.9001 25.6653 98.2131 25.4609 97.7044 25.0479C97.1957 24.6392 96.8566 24.0913 96.7001 23.4131C96.0609 24.0957 95.4305 24.6435 94.8088 25.0653C94.187 25.487 93.3783 25.6957 92.3783 25.6957V25.7044ZM94.1175 23.7827C94.5175 23.7827 94.9001 23.6913 95.2566 23.5131C95.6175 23.3305 96.0696 23.0305 96.6088 22.6131V17.8087C96.087 17.887 95.5566 17.987 95.0175 18.1087C94.1566 18.3087 93.4609 18.6783 92.9305 19.2218C92.4001 19.7609 92.1349 20.4913 92.1349 21.4131C92.1349 22.2131 92.3218 22.8087 92.6914 23.2C93.0609 23.5913 93.5349 23.787 94.1175 23.787V23.7827Z" fill="white"/>
<path d="M103.37 25.287V24.7174L103.848 24.5957C104.509 24.3957 104.839 23.9044 104.839 23.1261V14.2653C104.818 13.8435 104.748 13.5218 104.631 13.287C104.509 13.0566 104.248 12.9 103.848 12.8218L103.37 12.7V12.1609L108.235 10.4174L108.596 10.7479L108.804 12.6087C109.526 11.9696 110.331 11.4435 111.222 11.0305C112.113 10.6218 112.987 10.4131 113.848 10.4131C115.17 10.4131 116.187 10.774 116.896 11.4957C117.604 12.2174 117.961 13.3174 117.961 14.8V23.1479C117.961 23.9305 118.322 24.4174 119.044 24.6174L119.374 24.7087V25.2783H112.465V24.7087L112.918 24.587C113.578 24.3653 113.909 23.8783 113.909 23.1174V14.2C113.909 13.5 113.757 12.987 113.457 12.6696C113.157 12.3479 112.657 12.187 111.957 12.187C110.974 12.187 109.952 12.6174 108.891 13.4783V23.1479C108.891 23.9305 109.244 24.4174 109.944 24.6174L110.244 24.7087V25.2783H103.365L103.37 25.287Z" fill="white"/>
<path d="M124.722 25.4043L119.526 7.71738C119.387 7.27825 119.226 6.94781 119.048 6.72607C118.87 6.50433 118.565 6.32607 118.148 6.18694L117.787 6.0652V5.43477H125.535V6.0652L124.904 6.2739C124.444 6.41303 124.148 6.61303 124.018 6.8739C123.887 7.13477 123.883 7.49564 124.004 7.95651L127.278 20.2695L130.852 9.60868L130.313 7.8652C130.174 7.44346 130.031 7.12172 129.891 6.88694C129.752 6.65651 129.522 6.46955 129.2 6.33042L128.539 6.06085V5.43042H135.896V6.06085L135.057 6.33042C134.657 6.46955 134.426 6.66955 134.365 6.93042C134.305 7.19129 134.344 7.54346 134.487 7.98259L138.27 20.4478L141.752 8.1652C141.891 7.70433 141.931 7.30433 141.874 6.9652C141.813 6.62607 141.552 6.38694 141.091 6.24346L140.491 6.0652V5.43477H144.935V6.0652L144.183 6.30433C143.783 6.44346 143.496 6.64781 143.326 6.92172C143.157 7.19129 143.009 7.54781 142.891 7.98694L137.965 25.4043H135.891L131.448 11.4087L126.791 25.4043H124.718H124.722Z" fill="white"/>
<path d="M150.518 10.4174C151.778 10.4174 152.861 10.6782 153.761 11.2C154.661 11.7217 155.357 12.4348 155.848 13.3478C156.339 14.2608 156.583 15.3043 156.583 16.4869C156.583 16.7478 156.574 16.9913 156.552 17.2217C156.531 17.4521 156.491 17.6695 156.431 17.8652H147.391C147.413 19.9261 147.796 21.4087 148.548 22.3087C149.3 23.2087 150.396 23.6608 151.835 23.6608C152.835 23.6608 153.648 23.4956 154.265 23.1652C154.887 22.8347 155.457 22.3695 155.978 21.7695L156.461 22.2217C155.861 23.3217 155.044 24.1782 154.013 24.7913C152.983 25.4 151.757 25.7087 150.335 25.7087C148.913 25.7087 147.661 25.4087 146.583 24.8087C145.5 24.2087 144.657 23.3434 144.044 22.213C143.431 21.0826 143.126 19.7261 143.126 18.1434C143.126 16.5608 143.483 15.1087 144.191 13.9695C144.9 12.8304 145.822 11.9521 146.952 11.3434C148.083 10.7348 149.27 10.4261 150.513 10.4261L150.518 10.4174ZM150.37 11.2913C149.787 11.2913 149.283 11.4565 148.852 11.7869C148.422 12.1174 148.083 12.7 147.831 13.5304C147.578 14.3608 147.435 15.5261 147.396 17.0304H152.77C152.991 15.0087 152.909 13.5478 152.531 12.6478C152.148 11.7478 151.431 11.2956 150.37 11.2956V11.2913Z" fill="white"/>
<path d="M162.652 25.6739L157.726 25.2826V24.713L158.026 24.6522C158.809 24.4696 159.196 23.9696 159.196 23.1522V7.53478C159.196 7.13478 159.122 6.82608 158.97 6.60435C158.817 6.38261 158.543 6.22608 158.143 6.12608L157.752 6.03478V5.49565L162.887 4.20435L163.278 4.47391L163.157 8.70869V11.8609C164.578 10.9 166.109 10.4174 167.752 10.4174C169.396 10.4174 170.826 11.0348 171.926 12.2652C173.026 13.4956 173.578 15.3956 173.578 17.9565C173.578 19.6565 173.296 21.087 172.739 22.2348C172.178 23.387 171.426 24.2522 170.487 24.8304C169.543 25.4087 168.504 25.7 167.365 25.7C166.604 25.7 165.848 25.6 165.1 25.4C164.348 25.2 163.683 24.8913 163.104 24.4696L162.652 25.6696V25.6739ZM165.957 24.3826C166.617 24.3826 167.196 24.1913 167.7 23.813C168.2 23.4348 168.591 22.7826 168.87 21.8609C169.148 20.9391 169.291 19.6783 169.291 18.0783C169.291 16.4783 169.161 15.2261 168.9 14.3261C168.639 13.4261 168.265 12.7956 167.774 12.4348C167.283 12.0739 166.696 11.8956 166.017 11.8956C165.117 11.8956 164.196 12.1565 163.257 12.6783V23.6391C164.078 24.1391 164.978 24.3913 165.961 24.3913L165.957 24.3826Z" fill="white"/>
<path d="M180.161 25.7044C179.2 25.7044 178.335 25.6 177.561 25.3913C176.791 25.1826 176.052 24.887 175.352 24.5044V20.9609H176.161L177.061 22.6739C177.439 23.4131 177.878 23.9652 178.365 24.3261C178.857 24.687 179.483 24.8652 180.244 24.8652C181.183 24.8652 181.935 24.6609 182.496 24.2478C183.057 23.8391 183.335 23.2826 183.335 22.5826C183.335 21.9435 183.126 21.4218 182.704 21.0218C182.283 20.6218 181.535 20.2522 180.452 19.9087L179.131 19.487C177.948 19.1261 177.013 18.5826 176.322 17.8522C175.631 17.1218 175.287 16.2044 175.287 15.1044C175.287 14.2435 175.518 13.4565 175.978 12.7478C176.439 12.0391 177.109 11.4696 177.991 11.0522C178.874 10.6304 179.944 10.4218 181.204 10.4218C182.026 10.4218 182.783 10.5174 183.47 10.7087C184.161 10.9 184.835 11.1652 185.496 11.5044L185.318 14.7174H184.535L183.605 13.0044C183.283 12.3652 182.957 11.9174 182.626 11.6696C182.296 11.4174 181.791 11.2957 181.109 11.2957C180.387 11.2957 179.752 11.4826 179.2 11.8522C178.648 12.2218 178.374 12.7391 178.374 13.4C178.374 14.0218 178.605 14.5261 179.065 14.9174C179.526 15.3087 180.265 15.6739 181.287 16.0131L182.578 16.4044C184.039 16.8652 185.083 17.4739 185.7 18.2348C186.322 18.9957 186.631 19.9087 186.631 20.9696C186.631 22.3913 186.065 23.5391 184.935 24.4087C183.805 25.2783 182.209 25.7131 180.144 25.7131L180.161 25.7044Z" fill="white"/>
<path d="M187.996 25.287V24.7174L188.448 24.5957C188.848 24.474 189.117 24.2957 189.261 24.0566C189.4 23.8174 189.483 23.4957 189.5 23.0957V15.8435C189.5 15.3131 189.491 14.7696 189.47 14.2087C189.47 13.8087 189.396 13.4913 189.243 13.2609C189.091 13.0305 188.817 12.874 188.417 12.7957L187.996 12.7044V12.1653L193.252 10.4218L193.613 10.7522L193.522 15.0174V23.1261C193.522 23.5261 193.596 23.8479 193.748 24.087C193.9 24.3261 194.165 24.5087 194.543 24.6261L194.874 24.7174V25.287H187.996ZM191.452 8.7696C190.791 8.7696 190.23 8.56091 189.77 8.13917C189.309 7.71743 189.078 7.187 189.078 6.54786C189.078 5.90873 189.309 5.35221 189.77 4.93917C190.23 4.53047 190.791 4.32178 191.452 4.32178C192.113 4.32178 192.674 4.52613 193.135 4.93917C193.596 5.34786 193.826 5.887 193.826 6.54786C193.826 7.20873 193.596 7.71743 193.135 8.13917C192.674 8.56091 192.113 8.7696 191.452 8.7696Z" fill="white"/>
<path d="M201.843 25.7043C200.6 25.7043 199.626 25.4 198.917 24.7869C198.204 24.1782 197.852 23.1782 197.852 21.8C197.852 21.3174 197.856 20.8652 197.865 20.4348C197.874 20.0043 197.878 19.5 197.878 18.9174V11.8H195.748V11.1391L196.556 11.0174C197.135 10.9174 197.635 10.7391 198.043 10.4782C198.452 10.2174 198.83 9.8565 199.17 9.39563L201.122 6.69128H202.022L201.93 10.8652H205.352V11.7956H201.9V22.0348C201.9 22.7565 202.056 23.2956 202.365 23.6565C202.674 24.0174 203.061 24.1956 203.522 24.1956C203.922 24.1956 204.283 24.1 204.604 23.9087C204.926 23.7174 205.243 23.4652 205.565 23.1435L205.957 23.5956C205.574 24.2565 205.043 24.7739 204.365 25.1435C203.683 25.513 202.843 25.7 201.843 25.7V25.7043Z" fill="white"/>
<path d="M214.396 10.4174C215.657 10.4174 216.739 10.6782 217.639 11.2C218.539 11.7217 219.235 12.4348 219.726 13.3478C220.217 14.2608 220.461 15.3043 220.461 16.4869C220.461 16.7478 220.452 16.9913 220.43 17.2217C220.409 17.4521 220.37 17.6695 220.309 17.8652H211.27C211.291 19.9261 211.674 21.4087 212.426 22.3087C213.178 23.2087 214.274 23.6608 215.713 23.6608C216.713 23.6608 217.526 23.4956 218.144 23.1652C218.765 22.8347 219.335 22.3695 219.857 21.7695L220.339 22.2217C219.739 23.3217 218.922 24.1782 217.891 24.7913C216.861 25.4 215.635 25.7087 214.213 25.7087C212.791 25.7087 211.539 25.4087 210.461 24.8087C209.378 24.2087 208.535 23.3434 207.922 22.213C207.309 21.0826 207.004 19.7261 207.004 18.1434C207.004 16.5608 207.361 15.1087 208.07 13.9695C208.778 12.8304 209.7 11.9521 210.83 11.3434C211.961 10.7348 213.148 10.4261 214.391 10.4261L214.396 10.4174ZM214.244 11.2913C213.661 11.2913 213.157 11.4565 212.726 11.7869C212.296 12.1174 211.957 12.7 211.704 13.5304C211.452 14.3608 211.309 15.5261 211.27 17.0304H216.644C216.865 15.0087 216.783 13.5478 216.404 12.6478C216.022 11.7478 215.304 11.2956 214.244 11.2956V11.2913Z" fill="white"/>
<path d="M16.0784 29.1608L16.5697 29.6521C17.0305 30.113 17.7784 30.113 18.2392 29.6521L37.7957 10.0956C38.2566 9.63476 38.2566 8.88693 37.7957 8.42606L37.6653 8.29563L37.3088 7.93911L31.9305 2.56085C31.4697 2.09998 30.7218 2.09998 30.261 2.56085L29.7697 3.05215H29.774L27.7914 5.03911C27.3305 5.49998 26.5827 5.49998 26.1218 5.03911L23.0436 1.96085L22.5697 1.48693L22.5523 1.46954C22.0914 1.00867 21.3436 1.00867 20.8827 1.46954L18.5523 3.79998C18.0914 4.26085 17.3436 4.26085 16.8827 3.79998L13.9175 0.834759L13.5088 0.426064L13.4262 0.343455C12.9653 -0.117415 12.2175 -0.117415 11.7566 0.343455L0.834881 11.2652L0.343577 11.7565C-0.117293 12.2174 -0.117293 12.9652 0.343577 13.4261L16.0784 29.1608ZM35.1479 10.0956L28.5088 16.7348C28.0479 17.1956 27.3001 17.1956 26.8392 16.7348L23.6305 13.5261C23.1697 13.0652 23.1697 12.3174 23.6305 11.8565L30.2697 5.21737C30.7305 4.7565 31.4784 4.7565 31.9392 5.21737L35.1479 8.42606C35.6088 8.88693 35.6088 9.63476 35.1479 10.0956ZM24.7957 6.36085C25.2566 6.82172 25.2566 7.56954 24.7957 8.03041L21.4653 11.3608H21.461L20.9697 11.8435C20.5088 12.3043 20.5088 13.0521 20.9697 13.513L25.5131 18.0565C25.974 18.5174 25.974 19.2652 25.5131 19.7261L23.374 21.8652C22.9131 22.3261 22.1653 22.3261 21.7044 21.8652L13.2566 13.4174C12.7957 12.9565 12.7957 12.2087 13.2566 11.7478L20.8871 4.11737C21.3479 3.6565 22.0958 3.6565 22.5566 4.11737L24.8001 6.36085H24.7957ZM13.4262 2.99563L15.5523 5.12172C16.0131 5.58258 16.0131 6.33041 15.5523 6.79128L11.0914 11.2521L10.6001 11.7435C10.1392 12.2043 10.1392 12.9522 10.6001 13.413L20.374 23.1869C20.8349 23.6478 20.8349 24.3956 20.374 24.8565L18.2349 26.9956C17.774 27.4565 17.0262 27.4565 16.5653 26.9956L2.99575 13.4261C2.53488 12.9652 2.53488 12.2174 2.99575 11.7565L11.7566 2.99563C12.2175 2.53476 12.9653 2.53476 13.4262 2.99563Z" fill="white"/>
</g>
<defs>
<clipPath id="clip0_17_8">
<rect width="220.461" height="30" fill="white"/>
</clipPath>
</defs>
</svg>
