<svg width="175" height="22" viewBox="0 0 175 22" fill="none" xmlns="http://www.w3.org/2000/svg">
<path d="M10.8783 21.7957C8.93481 21.7957 7.18264 21.3957 5.62177 20.5957C4.0609 19.7957 2.82176 18.6131 1.91307 17.0522C1.00003 15.4913 0.547852 13.587 0.547852 11.3478C0.547852 9.66524 0.821765 8.17394 1.37394 6.87394C1.92611 5.57394 2.68698 4.47829 3.65655 3.58698C4.62611 2.69568 5.74351 2.02611 7.00438 1.57394C8.26525 1.12176 9.60872 0.900024 11.0305 0.900024C12.1305 0.900024 13.1609 1.02611 14.1218 1.27394C15.0826 1.52611 16.0044 1.89133 16.8826 2.36959L17.0044 6.30437H16.1957L14.9348 3.93046C14.7348 3.53046 14.5174 3.16959 14.2913 2.84785C14.0609 2.52611 13.7652 2.29568 13.4044 2.15655C12.9044 1.91742 12.3131 1.79568 11.6305 1.79568C10.4479 1.79568 9.37394 2.09568 8.40003 2.69568C7.43046 3.29568 6.6522 4.29133 6.07394 5.68263C5.49133 7.07394 5.20437 8.96959 5.20437 11.3739C5.20437 13.7783 5.47829 15.6479 6.03046 17.0478C6.58263 18.4478 7.32611 19.4435 8.26959 20.0348C9.20872 20.6261 10.2696 20.9218 11.4522 20.9218C11.9913 20.9218 12.4348 20.8826 12.7739 20.8C13.1131 20.7218 13.4522 20.6087 13.7957 20.4696C14.1957 20.3087 14.5044 20.0739 14.7261 19.7652C14.9479 19.4565 15.1348 19.1 15.2957 18.7L16.4348 15.9652H17.2479L17.1261 20.2913C16.2652 20.7739 15.3131 21.1435 14.2739 21.4044C13.2305 21.6652 12.1 21.7957 10.8783 21.7957Z" fill="white"/>
<path d="M18.7174 21.287V20.7174L19.1696 20.5956C19.8304 20.3739 20.1609 19.8739 20.1609 19.0956C20.1609 18.413 20.1652 17.7304 20.1739 17.0391C20.1826 16.3478 20.187 15.6609 20.187 14.9826V3.56956C20.187 3.14782 20.1174 2.83478 19.9783 2.62174C19.8391 2.41304 19.5696 2.25652 19.1696 2.15652L18.7174 2.03478V1.46522L23.9739 0.204346L24.3652 0.473911L24.2435 4.70869V19.0956C24.2652 19.4956 24.3478 19.8217 24.5 20.0696C24.6522 20.3217 24.9174 20.4956 25.2957 20.5956L25.7174 20.7174V21.287H18.7218H18.7174Z" fill="white"/>
<path d="M34.574 6.41736C35.8349 6.41736 36.9175 6.67823 37.8175 7.19997C38.7175 7.72171 39.4132 8.43475 39.9045 9.34779C40.3958 10.2608 40.6393 11.3043 40.6393 12.4869C40.6393 12.7478 40.6306 12.9913 40.6088 13.2217C40.5871 13.4521 40.548 13.6695 40.4871 13.8652H31.448C31.4697 15.9261 31.8523 17.4087 32.6045 18.3087C33.3566 19.2087 34.4523 19.6608 35.8914 19.6608C36.8914 19.6608 37.7045 19.4956 38.3219 19.1652C38.9436 18.8347 39.5132 18.3695 40.0349 17.7695L40.5175 18.2217C39.9175 19.3217 39.1001 20.1782 38.0697 20.7913C37.0393 21.4 35.8132 21.7087 34.3914 21.7087C32.9697 21.7087 31.7175 21.4087 30.6393 20.8087C29.5567 20.2087 28.7132 19.3434 28.1001 18.213C27.4871 17.0826 27.1827 15.7261 27.1827 14.1434C27.1827 12.5608 27.5393 11.1087 28.248 9.96953C28.9567 8.8304 29.8784 7.95214 31.0088 7.34345C32.1393 6.73475 33.3262 6.42605 34.5697 6.42605L34.574 6.41736ZM34.4219 7.29127C33.8393 7.29127 33.3349 7.45649 32.9045 7.78692C32.474 8.11736 32.1349 8.69997 31.8827 9.5304C31.6306 10.3608 31.4871 11.5261 31.448 13.0304H36.8219C37.0436 11.0087 36.961 9.54779 36.5827 8.64779C36.2001 7.74779 35.4827 7.29562 34.4219 7.29562V7.29127Z" fill="white"/>
<path d="M46.3783 21.7044C45.2392 21.7044 44.2696 21.3783 43.4783 20.7261C42.687 20.074 42.2914 19.1392 42.2914 17.9174C42.2914 16.9566 42.7566 16.0696 43.687 15.2609C44.6175 14.4522 46.0827 13.8566 48.087 13.474C48.4262 13.3957 48.8218 13.3174 49.274 13.2479C49.7262 13.1783 50.1696 13.1044 50.6088 13.0218V10.8913C50.6088 9.53048 50.4392 8.59135 50.1001 8.06961C49.7609 7.54787 49.2175 7.287 48.4783 7.287H48.387C47.9262 7.287 47.5609 7.43048 47.2914 7.72178C47.0218 8.01309 46.8479 8.487 46.7653 9.14787L46.674 9.53917C46.6131 10.3392 46.4044 10.9261 46.0436 11.2957C45.6827 11.6653 45.2305 11.8522 44.6914 11.8522C44.1914 11.8522 43.774 11.6957 43.4436 11.387C43.1131 11.0783 42.9479 10.6696 42.9479 10.1696C42.9479 9.34787 43.2262 8.65656 43.787 8.09569C44.3479 7.53482 45.0914 7.11309 46.0262 6.83482C46.9566 6.55656 47.9653 6.41309 49.0436 6.41309C50.8262 6.41309 52.187 6.84352 53.1262 7.70439C54.0653 8.56526 54.5392 9.96526 54.5392 11.9087V18.6044C54.5392 19.4653 54.9479 19.8957 55.7696 19.8957H56.4609L56.7609 20.2261C56.4001 20.687 56.0001 21.0435 55.5609 21.2913C55.1218 21.5435 54.5175 21.6653 53.7609 21.6653C52.9001 21.6653 52.2131 21.4609 51.7044 21.0479C51.1957 20.6392 50.8566 20.0913 50.7001 19.4131C50.0609 20.0957 49.4305 20.6435 48.8088 21.0653C48.187 21.487 47.3783 21.6957 46.3783 21.6957V21.7044ZM48.1175 19.7827C48.5175 19.7827 48.9001 19.6913 49.2566 19.5131C49.6175 19.3305 50.0696 19.0305 50.6088 18.6131V13.8087C50.087 13.887 49.5566 13.987 49.0175 14.1087C48.1566 14.3087 47.4609 14.6783 46.9305 15.2218C46.4001 15.7609 46.1349 16.4913 46.1349 17.4131C46.1349 18.2131 46.3218 18.8087 46.6914 19.2C47.0609 19.5913 47.5349 19.787 48.1175 19.787V19.7827Z" fill="white"/>
<path d="M57.3697 21.287V20.7174L57.848 20.5957C58.5088 20.3957 58.8393 19.9044 58.8393 19.1261V10.2653C58.8175 9.84352 58.748 9.52178 58.6306 9.287C58.5088 9.05656 58.248 8.90004 57.848 8.82178L57.3697 8.70004V8.16091L62.2349 6.41743L62.5958 6.74787L62.8045 8.60874C63.5262 7.96961 64.3306 7.44352 65.2219 7.03048C66.1132 6.62178 66.9871 6.41309 67.848 6.41309C69.1697 6.41309 70.1871 6.77396 70.8958 7.49569C71.6045 8.21743 71.961 9.31743 71.961 10.8V19.1479C71.961 19.9305 72.3219 20.4174 73.0436 20.6174L73.374 20.7087V21.2783H66.4654V20.7087L66.9175 20.587C67.5784 20.3653 67.9088 19.8783 67.9088 19.1174V10.2C67.9088 9.50004 67.7567 8.987 67.4567 8.66961C67.1567 8.34787 66.6567 8.187 65.9567 8.187C64.974 8.187 63.9523 8.61743 62.8914 9.4783V19.1479C62.8914 19.9305 63.2436 20.4174 63.9436 20.6174L64.2436 20.7087V21.2783H57.3654L57.3697 21.287Z" fill="white"/>
<path d="M78.7219 21.4043L73.5262 3.71738C73.3871 3.27825 73.2262 2.94781 73.048 2.72607C72.8697 2.50433 72.5654 2.32607 72.148 2.18694L71.7871 2.0652V1.43477H79.5349V2.0652L78.9045 2.2739C78.4436 2.41303 78.148 2.61303 78.0175 2.8739C77.8871 3.13477 77.8828 3.49564 78.0045 3.95651L81.2784 16.2695L84.8523 5.60868L84.3132 3.8652C84.1741 3.44346 84.0306 3.12172 83.8915 2.88694C83.7523 2.65651 83.5219 2.46955 83.2002 2.33042L82.5393 2.06085V1.43042H89.8958V2.06085L89.0567 2.33042C88.6567 2.46955 88.4262 2.66955 88.3654 2.93042C88.3045 3.19129 88.3436 3.54346 88.4871 3.98259L92.2697 16.4478L95.7523 4.1652C95.8915 3.70433 95.9306 3.30433 95.8741 2.9652C95.8132 2.62607 95.5523 2.38694 95.0915 2.24346L94.4915 2.0652V1.43477H98.9349V2.0652L98.1828 2.30433C97.7828 2.44346 97.4958 2.64781 97.3262 2.92172C97.1567 3.19129 97.0088 3.54781 96.8915 3.98694L91.9654 21.4043H89.8914L85.448 7.40868L80.7915 21.4043H78.7175H78.7219Z" fill="white"/>
<path d="M104.518 6.41736C105.778 6.41736 106.861 6.67823 107.761 7.19997C108.661 7.72171 109.357 8.43475 109.848 9.34779C110.339 10.2608 110.583 11.3043 110.583 12.4869C110.583 12.7478 110.574 12.9913 110.552 13.2217C110.531 13.4521 110.491 13.6695 110.431 13.8652H101.391C101.413 15.9261 101.796 17.4087 102.548 18.3087C103.3 19.2087 104.396 19.6608 105.835 19.6608C106.835 19.6608 107.648 19.4956 108.265 19.1652C108.887 18.8347 109.457 18.3695 109.978 17.7695L110.461 18.2217C109.861 19.3217 109.044 20.1782 108.013 20.7913C106.983 21.4 105.757 21.7087 104.335 21.7087C102.913 21.7087 101.661 21.4087 100.583 20.8087C99.5001 20.2087 98.6566 19.3434 98.0436 18.213C97.4306 17.0826 97.1262 15.7261 97.1262 14.1434C97.1262 12.5608 97.4827 11.1087 98.1914 9.96953C98.9001 8.8304 99.8219 7.95214 100.952 7.34345C102.083 6.73475 103.27 6.42605 104.513 6.42605L104.518 6.41736ZM104.37 7.29127C103.787 7.29127 103.283 7.45649 102.852 7.78692C102.422 8.11736 102.083 8.69997 101.831 9.5304C101.578 10.3608 101.435 11.5261 101.396 13.0304H106.77C106.991 11.0087 106.909 9.54779 106.531 8.64779C106.148 7.74779 105.431 7.29562 104.37 7.29562V7.29127Z" fill="white"/>
<path d="M116.652 21.6739L111.726 21.2826V20.713L112.026 20.6522C112.809 20.4696 113.196 19.9696 113.196 19.1522V3.53478C113.196 3.13478 113.122 2.82608 112.97 2.60435C112.817 2.38261 112.543 2.22608 112.143 2.12608L111.752 2.03478V1.49565L116.887 0.204346L117.278 0.473911L117.157 4.70869V7.86087C118.578 6.9 120.109 6.41739 121.752 6.41739C123.396 6.41739 124.826 7.03478 125.926 8.26521C127.026 9.49565 127.578 11.3956 127.578 13.9565C127.578 15.6565 127.296 17.087 126.739 18.2348C126.178 19.387 125.426 20.2522 124.487 20.8304C123.543 21.4087 122.504 21.7 121.365 21.7C120.604 21.7 119.848 21.6 119.1 21.4C118.348 21.2 117.683 20.8913 117.104 20.4696L116.652 21.6696V21.6739ZM119.957 20.3826C120.617 20.3826 121.196 20.1913 121.7 19.813C122.2 19.4348 122.591 18.7826 122.87 17.8609C123.148 16.9391 123.291 15.6783 123.291 14.0783C123.291 12.4783 123.161 11.2261 122.9 10.3261C122.639 9.42608 122.265 8.79565 121.774 8.43478C121.283 8.07391 120.696 7.89565 120.017 7.89565C119.117 7.89565 118.196 8.15652 117.257 8.67826V19.6391C118.078 20.1391 118.978 20.3913 119.961 20.3913L119.957 20.3826Z" fill="white"/>
<path d="M134.161 21.7044C133.2 21.7044 132.335 21.6 131.561 21.3913C130.791 21.1826 130.052 20.887 129.352 20.5044V16.9609H130.161L131.061 18.6739C131.439 19.4131 131.878 19.9652 132.365 20.3261C132.857 20.687 133.483 20.8652 134.244 20.8652C135.183 20.8652 135.935 20.6609 136.496 20.2478C137.057 19.8391 137.335 19.2826 137.335 18.5826C137.335 17.9435 137.126 17.4218 136.704 17.0218C136.283 16.6218 135.535 16.2522 134.452 15.9087L133.131 15.487C131.948 15.1261 131.013 14.5826 130.322 13.8522C129.631 13.1218 129.287 12.2044 129.287 11.1044C129.287 10.2435 129.518 9.45654 129.978 8.74784C130.439 8.03914 131.109 7.46958 131.991 7.05219C132.874 6.63045 133.944 6.42175 135.204 6.42175C136.026 6.42175 136.783 6.51741 137.47 6.70871C138.161 6.90001 138.835 7.16523 139.496 7.50436L139.318 10.7174H138.535L137.605 9.00436C137.283 8.36523 136.957 7.91741 136.626 7.66958C136.296 7.41741 135.791 7.29567 135.109 7.29567C134.387 7.29567 133.752 7.48262 133.2 7.85219C132.648 8.22175 132.374 8.73914 132.374 9.40001C132.374 10.0218 132.605 10.5261 133.065 10.9174C133.526 11.3087 134.265 11.6739 135.287 12.0131L136.578 12.4044C138.039 12.8652 139.083 13.4739 139.7 14.2348C140.322 14.9957 140.631 15.9087 140.631 16.9696C140.631 18.3913 140.065 19.5391 138.935 20.4087C137.805 21.2783 136.209 21.7131 134.144 21.7131L134.161 21.7044Z" fill="white"/>
<path d="M141.996 21.287V20.7174L142.448 20.5957C142.848 20.474 143.117 20.2957 143.261 20.0566C143.4 19.8174 143.483 19.4957 143.5 19.0957V11.8435C143.5 11.3131 143.491 10.7696 143.47 10.2087C143.47 9.80873 143.396 9.49134 143.243 9.26091C143.091 9.03047 142.817 8.87395 142.417 8.79569L141.996 8.70438V8.16526L147.252 6.42178L147.613 6.75221L147.522 11.0174V19.1261C147.522 19.5261 147.596 19.8479 147.748 20.087C147.9 20.3261 148.165 20.5087 148.543 20.6261L148.874 20.7174V21.287H141.996ZM145.452 4.7696C144.791 4.7696 144.23 4.56091 143.77 4.13917C143.309 3.71743 143.078 3.187 143.078 2.54786C143.078 1.90873 143.309 1.35221 143.77 0.939169C144.23 0.530473 144.791 0.321777 145.452 0.321777C146.113 0.321777 146.674 0.526125 147.135 0.939169C147.596 1.34786 147.826 1.887 147.826 2.54786C147.826 3.20873 147.596 3.71743 147.135 4.13917C146.674 4.56091 146.113 4.7696 145.452 4.7696Z" fill="white"/>
<path d="M155.843 21.7043C154.6 21.7043 153.626 21.4 152.917 20.7869C152.204 20.1782 151.852 19.1782 151.852 17.8C151.852 17.3174 151.856 16.8652 151.865 16.4348C151.874 16.0043 151.878 15.5 151.878 14.9174V7.79998H149.748V7.13911L150.556 7.01737C151.135 6.91737 151.635 6.73911 152.043 6.47824C152.452 6.21737 152.83 5.8565 153.17 5.39563L155.122 2.69128H156.022L155.93 6.8652H159.352V7.79563H155.9V18.0348C155.9 18.7565 156.056 19.2956 156.365 19.6565C156.674 20.0174 157.061 20.1956 157.522 20.1956C157.922 20.1956 158.283 20.1 158.604 19.9087C158.926 19.7174 159.243 19.4652 159.565 19.1435L159.957 19.5956C159.574 20.2565 159.043 20.7739 158.365 21.1435C157.683 21.513 156.843 21.7 155.843 21.7V21.7043Z" fill="white"/>
<path d="M168.396 6.41736C169.657 6.41736 170.739 6.67823 171.639 7.19997C172.539 7.72171 173.235 8.43475 173.726 9.34779C174.217 10.2608 174.461 11.3043 174.461 12.4869C174.461 12.7478 174.452 12.9913 174.43 13.2217C174.409 13.4521 174.37 13.6695 174.309 13.8652H165.27C165.291 15.9261 165.674 17.4087 166.426 18.3087C167.178 19.2087 168.274 19.6608 169.713 19.6608C170.713 19.6608 171.526 19.4956 172.144 19.1652C172.765 18.8347 173.335 18.3695 173.857 17.7695L174.339 18.2217C173.739 19.3217 172.922 20.1782 171.891 20.7913C170.861 21.4 169.635 21.7087 168.213 21.7087C166.791 21.7087 165.539 21.4087 164.461 20.8087C163.378 20.2087 162.535 19.3434 161.922 18.213C161.309 17.0826 161.004 15.7261 161.004 14.1434C161.004 12.5608 161.361 11.1087 162.07 9.96953C162.778 8.8304 163.7 7.95214 164.83 7.34345C165.961 6.73475 167.148 6.42605 168.391 6.42605L168.396 6.41736ZM168.244 7.29127C167.661 7.29127 167.157 7.45649 166.726 7.78692C166.296 8.11736 165.957 8.69997 165.704 9.5304C165.452 10.3608 165.309 11.5261 165.27 13.0304H170.644C170.865 11.0087 170.783 9.54779 170.404 8.64779C170.022 7.74779 169.304 7.29562 168.244 7.29562V7.29127Z" fill="white"/>
</svg>
